<svg xmlns="http://www.w3.org/2000/svg" width="87" height="87" viewBox="0 0 87 87" fill="none"><metadata><rdf:RDF xmlns:rdf="http://www.w3.org/1999/02/22-rdf-syntax-ns#" xmlns:dc="http://purl.org/dc/elements/1.1/"><rdf:Description><dc:creator>RealFaviconGenerator</dc:creator><dc:source>https://realfavicongenerator.net</dc:source></rdf:Description></rdf:RDF></metadata><circle cx="43.5" cy="43.5" r="43.5" fill="#2F80ED"></circle><path d="M53.4329 30C53.7331 30 54 30.2477 54 30.5264V32.8486C54 33.1273 53.7331 33.375 53.4329 33.375H34.5671C34.2669 33.375 34 33.1273 34 32.8486V30.5264C34 30.2477 34.2669 30 34.5671 30H53.4329Z" fill="white"></path><path d="M44.7301 37.3675C44.6472 37.1966 44.5144 37.0568 44.2157 37.0568H43.917C43.6515 37.0568 43.5022 37.1966 43.4026 37.3675L34.0603 56.27C33.8778 56.6428 34.1267 57 34.5747 57H37.18C37.6612 57 37.9267 56.7204 38.0428 56.4408L43.9336 44.1084H44.0166L49.9572 56.4408C50.1729 56.8291 50.372 57 50.82 57H53.4253C53.8733 57 54.1222 56.6272 53.9397 56.27L44.7301 37.3675Z" fill="white"></path></svg>